<svg width="40" height="40" viewBox="0 0 40 40" fill="none" xmlns="http://www.w3.org/2000/svg">
<path d="M14.6657 33.3335C14.2975 33.3335 13.9991 33.632 13.9991 34.0002V36.6668C13.9991 37.035 14.2975 37.3335 14.6657 37.3335C15.0339 37.3335 15.3324 37.035 15.3324 36.6668V34.0002C15.3324 33.632 15.0339 33.3335 14.6657 33.3335Z" fill="white"/>
<path d="M17.3327 33.3335C16.9645 33.3335 16.666 33.632 16.666 34.0002V36.6668C16.666 37.035 16.9645 37.3335 17.3327 37.3335C17.7009 37.3335 17.9994 37.035 17.9994 36.6668V34.0002C17.9994 33.632 17.7009 33.3335 17.3327 33.3335Z" fill="white"/>
<path d="M11.9997 33.3335C11.6315 33.3335 11.333 33.632 11.333 34.0002V36.6668C11.333 37.035 11.6315 37.3335 11.9997 37.3335C12.3679 37.3335 12.6664 37.035 12.6664 36.6668V34.0002C12.6664 33.632 12.3679 33.3335 11.9997 33.3335Z" fill="white"/>
<path d="M36.6667 13.1611V11.1499C37.0779 10.9136 37.3319 10.4762 37.3334 10.002V8.66873C37.3334 7.56424 36.4379 6.66887 35.3334 6.66887H32.6667C31.5621 6.66887 30.6667 7.56424 30.6667 8.66873V10.002C30.6681 10.4762 30.9222 10.9136 31.3334 11.1499V13.1611C29.3614 13.9264 28.0001 15.5076 28.0001 17.3348V26.6675C27.3216 26.6672 26.6471 26.7708 26.0001 26.9749V14.0017C25.9976 13.3425 25.5136 12.784 24.8614 12.6878C25.1187 12.2958 25.3698 11.8932 25.6147 11.4799C26.8989 9.37617 27.8507 7.08695 28.4367 4.693C29.0527 1.80985 28.3094 0.69326 27.5781 0.261289C25.8894 -0.734645 23.2614 1.23189 20.9194 4.20236C20.9161 4.20636 20.9114 4.2077 20.9081 4.21169C20.9047 4.21569 20.9027 4.22436 20.8981 4.23036C20.6972 4.4859 20.499 4.74788 20.3034 5.01631C19.8505 4.03143 19.0204 3.27011 18.0001 2.90378V2.00251C18.0001 0.898011 17.1047 0.00263936 16.0001 0.00263936H14.6668C13.5622 0.00263936 12.6668 0.898011 12.6668 2.00251V2.90045C11.6957 3.24006 10.8939 3.94245 10.4294 4.86032C8.85919 4.43801 7.18281 4.72214 5.83944 5.63827C5.63426 4.78942 5.53153 3.91906 5.53345 3.04577C5.53345 2.67761 5.23497 2.37915 4.86678 2.37915C4.49859 2.37915 4.20012 2.67761 4.20012 3.04577C4.19924 3.85931 4.27852 4.67095 4.43678 5.46895C3.17692 4.9035 1.74279 4.86748 0.456124 5.36895C0.117064 5.48191 -0.072608 5.84211 0.0261251 6.18556C0.0541251 6.28356 0.73679 8.60607 2.62612 9.30002C2.87589 9.38894 3.13599 9.44562 3.40012 9.46868C3.35586 9.75543 3.33358 10.0451 3.33345 10.3353C3.33257 11.221 3.54355 12.0942 3.94878 12.8818C3.56647 13.1261 3.33464 13.548 3.33345 14.0017V35.3336C3.33639 37.9096 5.424 39.9971 8.00011 40H21.3334C22.4321 39.9961 23.4943 39.6053 24.3334 38.8961C25.4203 39.6169 26.6958 40.001 28.0001 40C28.1801 40 28.3567 39.9873 28.5334 39.9733C28.5767 39.987 28.6214 39.9959 28.6667 40H38C39.1046 40 40 39.1046 40 38.0001V17.3348C40 15.5076 38.6387 13.9264 36.6667 13.1611ZM32 8.66873C32 8.30057 32.2985 8.00211 32.6667 8.00211H35.3334C35.7016 8.00211 36 8.30057 36 8.66873V10.002H32V8.66873ZM32.6667 11.3352H35.3334V12.7885C34.4517 12.6285 33.5484 12.6285 32.6667 12.7885V11.3352ZM30.8501 28.3274C30.238 28.6949 29.4972 28.7807 28.8174 28.5628C28.9235 28.2639 29.0715 27.9816 29.2567 27.7241C29.2627 27.7141 29.2707 27.7068 29.2761 27.6968C29.9018 26.8721 30.8787 26.3892 31.914 26.3929C31.8105 27.147 31.4315 27.8362 30.8501 28.3274ZM26.9021 1.41055C27.2601 1.6212 27.5347 2.53381 27.1334 4.41501C26.5773 6.66855 25.6779 8.82316 24.4667 10.8033C24.0814 11.4559 23.6741 12.0778 23.2574 12.6698H21.3334V10.002C21.3299 9.05836 20.9239 8.16107 20.2174 7.53548C20.6421 6.85085 21.0707 6.21623 21.4961 5.64227C21.8556 6.05123 22.1339 6.52499 22.3161 7.03818C22.3948 7.263 22.5875 7.42875 22.8216 7.473C23.0556 7.51724 23.2955 7.43326 23.4509 7.25268C23.6062 7.0721 23.6535 6.82236 23.5747 6.59754C23.3092 5.84388 22.886 5.1555 22.3334 4.57834C24.3907 2.11717 26.2347 1.01791 26.9021 1.41055ZM12.0001 12.6685V10.6686H13.3068C13.2543 11.3824 13.0199 12.0708 12.6261 12.6685H12.0001ZM14.6401 10.6686H17.3334V12.6685H14.1441C14.4333 12.0388 14.6016 11.3604 14.6401 10.6686ZM17.3334 9.33536H12.0001C11.2637 9.33536 10.6668 9.93227 10.6668 10.6686V12.6685H9.33344V10.002C9.33344 8.89748 10.2289 8.00211 11.3334 8.00211H18.0001C19.1046 8.00211 20.0001 8.89748 20.0001 10.002V12.6685H18.6667V10.6686C18.6667 9.93227 18.0698 9.33536 17.3334 9.33536ZM14.0001 2.00251C14.0001 1.63434 14.2986 1.33588 14.6668 1.33588H16.0001C16.3683 1.33588 16.6668 1.63434 16.6668 2.00251V2.66913H14.0001V2.00251ZM14.0001 4.00238H16.6668C18.054 4.00853 19.2049 5.07726 19.3134 6.46021C19.2294 6.59354 19.1481 6.72686 19.0654 6.86019C18.7233 6.73799 18.3633 6.67334 18.0001 6.66887H13.2961C12.8449 6.13449 12.2974 5.68949 11.6821 5.35695C12.1532 4.51973 13.0394 4.00184 14.0001 4.00238ZM9.0001 6.00224C9.8146 6.00429 10.6119 6.23654 11.3001 6.6722C9.47348 6.69046 8.00184 8.17539 8.00011 10.002V12.6685H5.37411C4.70753 11.685 4.49941 10.4612 4.80345 9.31269C5.3372 9.14571 5.84433 8.90327 6.30944 8.59274C6.32944 8.58007 6.34811 8.57141 6.36811 8.55807C6.40402 8.53182 6.43709 8.50188 6.46678 8.46875C6.48745 8.45129 6.50704 8.43259 6.52544 8.41275C6.5752 8.35062 6.61316 8.2799 6.63744 8.2041C6.66078 8.12684 6.66959 8.04592 6.66344 7.96545C6.65978 7.93979 6.65443 7.91441 6.64744 7.88945C6.6427 7.84423 6.63355 7.79957 6.62011 7.75613C6.60344 7.7148 6.58144 7.6708 6.56211 7.62747C6.45611 7.42215 6.36744 7.20016 6.27744 6.97885C7.04323 6.3456 8.00639 6.00012 9.0001 6.00224ZM1.56146 6.44955C2.7521 6.11457 4.02937 6.49192 4.84678 7.42015C4.85878 7.43215 4.86345 7.44815 4.87611 7.46015C4.88878 7.47215 4.88678 7.46481 4.89145 7.46881C4.96963 7.5613 5.04284 7.65788 5.11078 7.75813C4.51024 8.14131 3.77389 8.24768 3.08945 8.05011C2.39866 7.72534 1.85382 7.15463 1.56146 6.44955ZM8.00011 38.6668C6.16008 38.6646 4.66898 37.1736 4.66678 35.3336V16.6682H6.00011C6.3683 16.6682 6.66678 16.3697 6.66678 16.0016C6.66678 15.6334 6.3683 15.335 6.00011 15.335H4.66678V14.0017H24.6667V15.335H9.33344C8.96525 15.335 8.66677 15.6334 8.66677 16.0016C8.66677 16.3697 8.96525 16.6682 9.33344 16.6682H24.6667V27.5695C22.8738 28.6018 21.6632 30.4094 21.3913 32.4603C21.1195 34.5112 21.8173 36.5717 23.2794 38.0355C22.7146 38.4478 22.0328 38.669 21.3334 38.6668H8.00011ZM22.6667 33.3338C22.6714 30.5489 24.8166 28.2357 27.5934 28.0215C27.4787 28.3186 27.3997 28.6283 27.3581 28.9441C27.3196 29.2568 27.5053 29.5538 27.8034 29.656C28.4014 29.8724 29.0309 29.9889 29.6667 30.0007C30.3599 30.015 31.0401 29.8114 31.6114 29.4187C32.7134 30.4214 33.339 31.8439 33.3334 33.3338C33.3334 36.2791 30.9456 38.6668 28.0001 38.6668C25.0545 38.6668 22.6667 36.2791 22.6667 33.3338ZM38.6667 21.3346H34C33.6319 21.3346 33.3334 21.633 33.3334 22.0012C33.3334 22.3694 33.6319 22.6678 34 22.6678H38.6667V31.3339H36.6667C36.2985 31.3339 36 31.6324 36 32.0005C36 32.3687 36.2985 32.6672 36.6667 32.6672H38.6667V38.0001C38.6667 38.3683 38.3682 38.6668 38 38.6668H31.9834C33.5717 37.4874 34.5519 35.6616 34.6572 33.6861C34.7625 31.7106 33.982 29.791 32.528 28.4494C33.0142 27.6278 33.2908 26.6993 33.3334 25.7456C33.3405 25.3889 33.0655 25.0898 32.7094 25.067C31.5294 24.9473 30.3429 25.2198 29.3334 25.8423V22.6678H30.6667C31.0349 22.6678 31.3334 22.3694 31.3334 22.0012C31.3334 21.633 31.0349 21.3346 30.6667 21.3346H29.3334V17.3348C29.3334 15.497 31.4267 14.0017 34 14.0017C36.5734 14.0017 38.6667 15.497 38.6667 17.3348V21.3346Z" fill="white"/>
</svg>
