<svg width="40" height="40" viewBox="0 0 40 40" fill="none" xmlns="http://www.w3.org/2000/svg">
<path d="M4.22616e-05 27.3199C-0.0066814 32.2671 2.87414 36.7632 7.37136 38.8243C11.8686 40.8853 17.1548 40.1322 20.8976 36.8972C22.9864 38.8998 25.7716 40.0124 28.6652 39.9999C32.454 39.9986 35.9918 38.1048 38.0942 34.9527C40.1965 31.8006 40.5857 27.8066 39.1314 24.3079C39.1099 24.2528 39.0831 24.1999 39.0514 24.1499C38.9907 24.0506 38.8514 23.7499 38.6287 23.2586C37.1302 19.7359 36.2971 15.9661 36.1715 12.14C36.1583 8.27403 33.207 5.05238 29.3572 4.70133C29.6058 1.48067 31.7424 1.338 32.0037 1.33334C32.2419 1.33238 32.4615 1.20444 32.5797 0.997693C32.698 0.79095 32.697 0.536819 32.577 0.331028C32.4571 0.125238 32.2366 -0.000947347 31.9984 5.35679e-06C30.1691 0.134926 28.6483 1.46081 28.2653 3.25466C28.2313 3.206 28.2026 3.156 28.1679 3.108C26.736 1.14467 22.6595 0.152672 22.4869 0.111338C22.2967 0.0660561 22.0963 0.106512 21.9386 0.222003C21.7809 0.337494 21.6818 0.516381 21.6676 0.711337C21.6536 0.88867 21.3516 5.07932 22.7842 7.03932C22.8509 7.12865 22.9122 7.20265 22.9749 7.28132C21.8043 8.62935 21.1595 10.3546 21.159 12.14C21.1215 13.9221 20.9115 15.6964 20.5317 17.438C18.2974 15.6441 15.5179 14.6664 12.6527 14.6666C12.3407 14.6666 12.0321 14.6846 11.7248 14.7066L12.4114 13.3333H16.6658C17.7704 13.3333 18.6657 12.4379 18.6657 11.3333V2C18.6657 0.895433 17.7704 5.35679e-06 16.6658 5.35679e-06H1.99994C0.895427 5.35679e-06 4.22616e-05 0.895433 4.22616e-05 2V11.3333C4.22616e-05 12.4379 0.895427 13.3333 1.99994 13.3333H6.25439L7.47699 15.7793C2.94247 17.833 0.0212848 22.3419 4.22616e-05 27.3199ZM27.084 3.88866C27.2789 4.16167 27.4486 4.45174 27.5913 4.75533C26.2503 4.94443 24.9857 5.4937 23.9321 6.34465C23.9068 6.31065 23.8821 6.28265 23.8555 6.24665C23.0949 5.19999 22.9502 3 22.9649 1.62733C24.2755 2.03133 26.3214 2.84066 27.084 3.88866ZM28.6652 5.99999C32.0644 5.99482 34.8261 8.74265 34.8382 12.142C34.9505 16.1573 35.8229 20.115 37.4094 23.8053C37.5494 24.1529 37.712 24.4909 37.8961 24.8173C39.1795 27.9041 38.8368 31.428 36.9827 34.2097C35.1287 36.9914 32.0081 38.6635 28.6652 38.6666C26.1344 38.6781 23.6964 37.7137 21.8582 35.9739C26.5266 31.0397 26.4434 23.2928 21.6703 18.46C22.1686 16.3886 22.4442 14.2699 22.4922 12.14C22.5054 8.74143 25.2668 5.99482 28.6652 5.99999ZM6.66636 12H1.99994C1.63177 12 1.33331 11.7015 1.33331 11.3333V2C1.33331 1.63181 1.63177 1.33334 1.99994 1.33334H16.6658C17.034 1.33334 17.3325 1.63181 17.3325 2V11.3333C17.3325 11.7015 17.034 12 16.6658 12H11.9994C11.7468 11.9999 11.5157 12.1426 11.4028 12.3686L9.33289 16.5093L7.26633 12.3686C7.15286 12.1415 6.92024 11.9986 6.66636 12ZM8.07429 16.9733L8.73626 18.298C8.84903 18.5242 9.08008 18.6672 9.33289 18.6672C9.5857 18.6672 9.81676 18.5242 9.92953 18.298L11.0148 16.1266C16.9025 15.2688 22.4484 19.1189 23.7032 24.9352C24.9581 30.7515 21.493 36.5458 15.7754 38.1921C10.0578 39.8384 4.0422 36.7739 2.01224 31.1807C-0.0177257 25.5875 2.63186 19.3778 8.07429 16.9733Z" fill="#43B028"/>
<path d="M4.80429 24.3332C4.98838 24.6521 5.39608 24.7613 5.71491 24.5772L5.79091 24.5332C6.13053 24.8757 6.5568 25.1195 7.02418 25.2386V25.3332C7.02418 25.7014 7.32264 25.9999 7.69081 25.9999C8.05898 25.9999 8.35744 25.7014 8.35744 25.3332V25.2386C8.82475 25.1193 9.25097 24.8756 9.59071 24.5332L9.66671 24.5772C9.87308 24.6982 10.1284 24.6994 10.3359 24.5802C10.5433 24.4611 10.671 24.2399 10.6705 24.0007C10.67 23.7614 10.5413 23.5408 10.3333 23.4226L10.25 23.3746C10.3931 22.9134 10.3931 22.4197 10.25 21.9586L10.3333 21.9106C10.5413 21.7923 10.67 21.5717 10.6705 21.3325C10.671 21.0933 10.5433 20.8721 10.3359 20.7529C10.1284 20.6338 9.87308 20.6349 9.66671 20.7559L9.59071 20.7999C9.25097 20.4576 8.82475 20.2138 8.35744 20.0946V19.9999C8.35744 19.6317 8.05898 19.3333 7.69081 19.3333C7.32264 19.3333 7.02418 19.6317 7.02418 19.9999V20.0946C6.5568 20.2136 6.13053 20.4574 5.79091 20.7999L5.71491 20.7559C5.39636 20.5748 4.99134 20.6848 4.80811 21.0021C4.62488 21.3195 4.73216 21.7252 5.04828 21.9106L5.13228 21.9586C4.98828 22.4196 4.98828 22.9136 5.13228 23.3746L5.04828 23.4226C4.72945 23.6067 4.62022 24.0144 4.80429 24.3332ZM7.69081 21.3332C8.42715 21.3332 9.02407 21.9302 9.02407 22.6666C9.02407 23.403 8.42715 23.9999 7.69081 23.9999C6.95447 23.9999 6.35755 23.403 6.35755 22.6666C6.35755 21.9302 6.95447 21.3332 7.69081 21.3332Z" fill="#43B028"/>
<path d="M5.99967 33.9998C6.36784 33.9998 6.6663 33.7014 6.6663 33.3332C6.6663 32.965 6.36784 32.6665 5.99967 32.6665C5.6315 32.6665 5.33304 32.965 5.33304 33.3332C5.33304 33.7014 5.6315 33.9998 5.99967 33.9998Z" fill="#43B028"/>
<path d="M7.99967 35.9998C8.36784 35.9998 8.6663 35.7014 8.6663 35.3332C8.6663 34.965 8.36784 34.6665 7.99967 34.6665C7.6315 34.6665 7.33304 34.965 7.33304 35.3332C7.33304 35.7014 7.6315 35.9998 7.99967 35.9998Z" fill="#43B028"/>
<path d="M10.6676 33.3333C11.0358 33.3333 11.3343 33.0349 11.3343 32.6667C11.3343 32.2985 11.0358 32 10.6676 32C10.2995 32 10.001 32.2985 10.001 32.6667C10.001 33.0349 10.2995 33.3333 10.6676 33.3333Z" fill="#43B028"/>
<path d="M11.9997 37.3333C12.3678 37.3333 12.6663 37.0349 12.6663 36.6667C12.6663 36.2985 12.3678 36 11.9997 36C11.6315 36 11.333 36.2985 11.333 36.6667C11.333 37.0349 11.6315 37.3333 11.9997 37.3333Z" fill="#43B028"/>
<path d="M15.9997 36.6666C16.3678 36.6666 16.6663 36.3681 16.6663 35.9999C16.6663 35.6317 16.3678 35.3333 15.9997 35.3333C15.6315 35.3333 15.333 35.6317 15.333 35.9999C15.333 36.3681 15.6315 36.6666 15.9997 36.6666Z" fill="#43B028"/>
<path d="M19.3327 33.9998C19.7008 33.9998 19.9993 33.7014 19.9993 33.3332C19.9993 32.965 19.7008 32.6665 19.3327 32.6665C18.9645 32.6665 18.666 32.965 18.666 33.3332C18.666 33.7014 18.9645 33.9998 19.3327 33.9998Z" fill="#43B028"/>
<path d="M21.9987 29.3333C22.3669 29.3333 22.6653 29.0349 22.6653 28.6667C22.6653 28.2985 22.3669 28 21.9987 28C21.6305 28 21.3321 28.2985 21.3321 28.6667C21.3321 29.0349 21.6305 29.3333 21.9987 29.3333Z" fill="#43B028"/>
<path d="M15.3327 33.3333C15.7008 33.3333 15.9993 33.0349 15.9993 32.6667C15.9993 32.2985 15.7008 32 15.3327 32C14.9645 32 14.666 32.2985 14.666 32.6667C14.666 33.0349 14.9645 33.3333 15.3327 33.3333Z" fill="#43B028"/>
<path d="M18.6657 29.9998C19.0339 29.9998 19.3323 29.7014 19.3323 29.3332C19.3323 28.965 19.0339 28.6665 18.6657 28.6665C18.2975 28.6665 17.9991 28.965 17.9991 29.3332C17.9991 29.7014 18.2975 29.9998 18.6657 29.9998Z" fill="#43B028"/>
<path d="M8.66584 4.66674C8.66584 3.56218 7.77046 2.66675 6.66594 2.66675C5.56143 2.66675 4.66605 3.56218 4.66605 4.66674C4.66605 5.77131 5.56143 6.66674 6.66594 6.66674C7.77046 6.66674 8.66584 5.77131 8.66584 4.66674ZM5.99931 4.66674C5.99931 4.29855 6.29777 4.00008 6.66594 4.00008C7.03411 4.00008 7.33258 4.29855 7.33258 4.66674C7.33258 5.03493 7.03411 5.33341 6.66594 5.33341C6.29777 5.33341 5.99931 5.03493 5.99931 4.66674Z" fill="#43B028"/>
<path d="M9.99905 8.6665C9.99905 9.77106 10.8944 10.6665 11.9989 10.6665C13.1035 10.6665 13.9988 9.77106 13.9988 8.6665C13.9988 7.56193 13.1035 6.6665 11.9989 6.6665C10.8944 6.6665 9.99905 7.56193 9.99905 8.6665ZM12.6656 8.6665C12.6656 9.03469 12.3671 9.33316 11.9989 9.33316C11.6308 9.33316 11.3323 9.03469 11.3323 8.6665C11.3323 8.29831 11.6308 7.99983 11.9989 7.99983C12.3671 7.99983 12.6656 8.29831 12.6656 8.6665Z" fill="#43B028"/>
<path d="M12.4714 3.52869C12.2111 3.26843 11.7891 3.26843 11.5288 3.52869L6.19575 8.86201C6.02245 9.02939 5.95295 9.27726 6.01396 9.51034C6.07497 9.74343 6.25699 9.92546 6.49006 9.98647C6.72314 10.0475 6.97099 9.97798 7.13837 9.80467L12.4714 4.47135C12.7317 4.21102 12.7317 3.78902 12.4714 3.52869Z" fill="#43B028"/>
<path d="M35.3196 33.7659C35.543 33.7664 35.7517 33.6551 35.8756 33.4693C37.4771 31.1089 37.794 28.1046 36.7202 25.462C36.5833 25.1201 36.1951 24.954 35.8533 25.091C35.5114 25.2279 35.3453 25.6161 35.4823 25.958C36.391 28.1943 36.1218 30.7368 34.765 32.7333C34.6289 32.9378 34.6163 33.2007 34.7323 33.4173C34.8482 33.6339 35.0739 33.7692 35.3196 33.7693V33.7659Z" fill="#43B028"/>
</svg>
