<svg width="40" height="40" viewBox="0 0 40 40" fill="none" xmlns="http://www.w3.org/2000/svg">
<path d="M13.9983 40C19.6649 39.992 24.7698 36.5156 26.9365 31.1893L34.8301 39.1045C35.883 40.1585 37.5285 40.2895 38.7298 39.4148C39.931 38.5402 40.3398 36.9135 39.6986 35.5597L27.2499 9.38613C26.0278 6.78385 23.5283 5.04753 20.7008 4.83662C20.8209 2.80135 22.5495 1.20366 22.5682 1.18738C22.7808 0.996776 22.8517 0.690337 22.7451 0.42325C22.6386 0.156163 22.3777 -0.0132475 22.0947 0.000813049C18.9395 0.154815 17.5243 1.74843 16.8834 3.21383C15.5096 2.39654 14.0478 1.74277 12.5271 1.26539C12.3282 1.20306 12.1122 1.23872 11.9429 1.36183C11.7736 1.48493 11.6705 1.68135 11.6641 1.89294C11.6198 3.5092 11.7574 5.12531 12.0743 6.70975C10.505 6.85629 8.56562 7.71517 7.40586 10.7009C7.30235 10.9684 7.37584 11.2733 7.58927 11.4617C7.80271 11.6502 8.10973 11.6813 8.35554 11.5394C8.37822 11.5266 10.4303 10.3712 12.3657 10.9187C12.3075 11.1539 12.2592 11.3927 12.221 11.6351C4.89561 12.5893 -0.440988 19.1683 0.0287955 26.6657C0.498579 34.1631 6.61312 39.9996 13.9983 40ZM37.9592 38.3155C37.2852 38.8106 36.3578 38.7363 35.7684 38.1398L27.4267 29.7728C28.9179 24.6691 27.4682 19.1459 23.6746 15.4777L27.3426 12.6921L28.5164 15.1588L27.2373 16.091C27.0016 16.2627 26.9019 16.5695 26.9907 16.8502C27.0794 17.1309 27.3362 17.3212 27.6261 17.321C27.7651 17.3213 27.9007 17.2769 28.0135 17.1941L29.1059 16.3983L30.2851 18.8773L28.4844 20.1907C28.2859 20.3299 28.1768 20.5672 28.1989 20.8114C28.221 21.0556 28.3709 21.2686 28.591 21.3686C28.8111 21.4686 29.0672 21.44 29.2607 21.2938L30.8713 20.1168L34.4093 27.553L32.2885 29.0977C32.0528 29.2694 31.9532 29.5763 32.0419 29.857C32.1306 30.1377 32.3874 30.3279 32.6773 30.3277C32.8163 30.328 32.952 30.2836 33.0648 30.2008L34.9988 28.7918L38.5001 36.1527C38.8639 36.9112 38.6351 37.826 37.9592 38.3155ZM20.4514 1.65888C19.8122 2.60217 19.4365 3.70416 19.3643 4.84747C18.801 4.89785 18.2447 5.00976 17.705 5.18126C17.7266 4.96686 17.7627 4.75424 17.8131 4.5449C17.8265 4.50612 17.8363 4.46614 17.8424 4.42549C18.1731 3.10064 19.1639 2.05003 20.4514 1.65888ZM16.4659 4.56796C16.3913 4.94587 16.354 5.33041 16.3545 5.71586C16.3545 5.72807 16.3545 5.74028 16.3585 5.75249C16.0399 5.92297 15.7329 6.11494 15.4395 6.32711C15.1484 6.54137 14.8721 6.77575 14.6125 7.0286C14.6006 7.02227 14.5884 7.0166 14.5759 7.01164C14.2178 6.88425 13.8477 6.79535 13.4714 6.74638C13.1512 5.47599 12.9921 4.16914 12.9979 2.85766C14.2199 3.27744 15.3851 3.85206 16.4659 4.56796ZM9.47663 9.65207C10.2261 8.55867 11.4797 7.93919 12.7879 8.01571C12.8506 8.03497 12.9157 8.0448 12.9813 8.04488C12.9993 8.04488 13.0173 8.03539 13.036 8.03403C13.2398 8.05449 13.4421 8.08871 13.6415 8.13647C13.3076 8.60182 13.0237 9.10218 12.7945 9.629C11.7066 9.33158 10.5598 9.33955 9.47596 9.65207H9.47663ZM16.2125 7.43091C17.8028 6.27062 19.8157 5.88426 21.7123 6.37528C23.6088 6.86631 25.1953 8.18456 26.0468 9.97703L26.7471 11.4479L22.6415 14.5686C20.182 12.5862 17.1363 11.507 13.9983 11.5062C13.8603 11.5062 13.7269 11.5232 13.5902 11.5272C13.926 9.87405 14.8633 8.41094 16.2145 7.43091H16.2125ZM13.9983 12.863C20.9965 12.863 26.6697 18.6341 26.6697 25.7531C26.6697 32.8721 20.9965 38.6432 13.9983 38.6432C7.0001 38.6432 1.32692 32.8721 1.32692 25.7531C1.33464 18.6374 7.0033 12.8709 13.9983 12.863Z" fill="#43B028"/>
<path d="M5.77504 22.0218C5.9592 22.3462 6.36707 22.4574 6.68604 22.2701L6.76273 22.2253C7.10225 22.5738 7.52848 22.8219 7.99586 22.9431V23.0394C7.99586 23.4141 8.29445 23.7178 8.66277 23.7178C9.0311 23.7178 9.32969 23.4141 9.32969 23.0394V22.9431C9.79707 22.8219 10.2233 22.5738 10.5628 22.2253L10.6395 22.2701C10.846 22.3932 11.1014 22.3943 11.309 22.2731C11.5165 22.1518 11.6442 21.9268 11.6437 21.6833C11.6432 21.4399 11.5145 21.2154 11.3064 21.095L11.2231 21.0462C11.3662 20.5769 11.3662 20.0745 11.2231 19.6052L11.3064 19.5564C11.5145 19.436 11.6432 19.2116 11.6437 18.9681C11.6442 18.7247 11.5165 18.4996 11.309 18.3783C11.1014 18.2571 10.846 18.2582 10.6395 18.3813L10.5628 18.4261C10.2233 18.0776 9.79707 17.8295 9.32969 17.7084V17.612C9.32969 17.2373 9.0311 16.9336 8.66277 16.9336C8.29445 16.9336 7.99586 17.2373 7.99586 17.612V17.7084C7.52848 17.8295 7.10225 18.0776 6.76273 18.4261L6.68604 18.3813C6.36735 18.197 5.96216 18.3089 5.77885 18.6319C5.59555 18.9549 5.70287 19.3678 6.01913 19.5564L6.10249 19.6052C5.95932 20.0745 5.95932 20.5769 6.10249 21.0462L6.01913 21.095C5.70016 21.2824 5.59088 21.6973 5.77504 22.0218ZM8.66277 18.9689C9.39943 18.9689 9.9966 19.5763 9.9966 20.3257C9.9966 21.0751 9.39943 21.6826 8.66277 21.6826C7.92612 21.6826 7.32894 21.0751 7.32894 20.3257C7.32894 19.5763 7.92612 18.9689 8.66277 18.9689Z" fill="#43B028"/>
<path d="M6.6618 33.2157C7.02999 33.2157 7.32846 32.912 7.32846 32.5373C7.32846 32.1626 7.02999 31.8589 6.6618 31.8589C6.29362 31.8589 5.99515 32.1626 5.99515 32.5373C5.99515 32.912 6.29362 33.2157 6.6618 33.2157Z" fill="#43B028"/>
<path d="M8.66278 35.2511C9.03096 35.2511 9.32944 34.9474 9.32944 34.5727C9.32944 34.198 9.03096 33.8943 8.66278 33.8943C8.2946 33.8943 7.99612 34.198 7.99612 34.5727C7.99612 34.9474 8.2946 35.2511 8.66278 35.2511Z" fill="#43B028"/>
<path d="M10.6638 32.5373C11.0319 32.5373 11.3304 32.2335 11.3304 31.8588C11.3304 31.4842 11.0319 31.1804 10.6638 31.1804C10.2956 31.1804 9.9971 31.4842 9.9971 31.8588C9.9971 32.2335 10.2956 32.5373 10.6638 32.5373Z" fill="#43B028"/>
<path d="M12.6647 36.6078C13.0329 36.6078 13.3314 36.3041 13.3314 35.9294C13.3314 35.5547 13.0329 35.251 12.6647 35.251C12.2965 35.251 11.9981 35.5547 11.9981 35.9294C11.9981 36.3041 12.2965 36.6078 12.6647 36.6078Z" fill="#43B028"/>
<path d="M16.6657 36.6078C17.0339 36.6078 17.3324 36.3041 17.3324 35.9294C17.3324 35.5547 17.0339 35.251 16.6657 35.251C16.2975 35.251 15.9991 35.5547 15.9991 35.9294C15.9991 36.3041 16.2975 36.6078 16.6657 36.6078Z" fill="#43B028"/>
<path d="M19.9997 34.5727C20.3679 34.5727 20.6664 34.2689 20.6664 33.8942C20.6664 33.5196 20.3679 33.2158 19.9997 33.2158C19.6315 33.2158 19.333 33.5196 19.333 33.8942C19.333 34.2689 19.6315 34.5727 19.9997 34.5727Z" fill="#43B028"/>
<path d="M22.6677 31.1804C23.0358 31.1804 23.3343 30.8766 23.3343 30.5019C23.3343 30.1272 23.0358 29.8235 22.6677 29.8235C22.2995 29.8235 22.001 30.1272 22.001 30.5019C22.001 30.8766 22.2995 31.1804 22.6677 31.1804Z" fill="#43B028"/>
<path d="M15.3327 33.2157C15.7009 33.2157 15.9994 32.912 15.9994 32.5373C15.9994 32.1626 15.7009 31.8589 15.3327 31.8589C14.9645 31.8589 14.666 32.1626 14.666 32.5373C14.666 32.912 14.9645 33.2157 15.3327 33.2157Z" fill="#43B028"/>
<path d="M19.3337 31.1804C19.7019 31.1804 20.0003 30.8766 20.0003 30.5019C20.0003 30.1272 19.7019 29.8235 19.3337 29.8235C18.9655 29.8235 18.667 30.1272 18.667 30.5019C18.667 30.8766 18.9655 31.1804 19.3337 31.1804Z" fill="#43B028"/>
</svg>
